<?xml version="1.0" encoding="utf-8"?>
<!-- Generator: Adobe Illustrator 16.0.0, SVG Export Plug-In . SVG Version: 6.00 Build 0)  -->
<!DOCTYPE svg PUBLIC "-//W3C//DTD SVG 1.1//EN" "http://www.w3.org/Graphics/SVG/1.1/DTD/svg11.dtd">
<svg version="1.1" id="Layer_1" xmlns="http://www.w3.org/2000/svg" xmlns:xlink="http://www.w3.org/1999/xlink" x="0px" y="0px"
	 width="36.001px" height="36.001px" viewBox="0 0 36.001 36.001" enable-background="new 0 0 36.001 36.001" xml:space="preserve">
<g>
	<g>
		<path fill="#9C9BA2" d="M33.334,0.001H2.655C1.19,0.001,0,1.163,0,2.595v30.809c0,1.434,1.19,2.598,2.655,2.598h30.679
			c1.468,0,2.667-1.164,2.667-2.598V2.595C36.001,1.163,34.802,0.001,33.334,0.001z M10.68,30.677H5.335V13.498h5.345V30.677z
			 M8.009,11.148c-1.716,0-3.098-1.387-3.098-3.097c0-1.707,1.382-3.095,3.098-3.095c1.708,0,3.095,1.388,3.095,3.095
			C11.104,9.761,9.717,11.148,8.009,11.148z M30.675,30.677H25.34v-8.354c0-1.992-0.038-4.556-2.774-4.556
			c-2.779,0-3.203,2.17-3.203,4.411v8.498h-5.333V13.498h5.118v2.347h0.073c0.712-1.351,2.455-2.775,5.053-2.775
			c5.402,0,6.401,3.557,6.401,8.184V30.677z"/>
	</g>
</g>
</svg>
