<?xml version="1.0" encoding="UTF-8" standalone="no"?>
<!DOCTYPE svg PUBLIC "-//W3C//DTD SVG 1.1//EN" "http://www.w3.org/Graphics/SVG/1.1/DTD/svg11.dtd">
<svg width="100%" height="100%" viewBox="0 0 66 74" version="1.1" xmlns="http://www.w3.org/2000/svg" xmlns:xlink="http://www.w3.org/1999/xlink" xml:space="preserve" style="fill-rule:evenodd;clip-rule:evenodd;stroke-linejoin:round;stroke-miterlimit:1.41421;">
    <g transform="matrix(1,0,0,1,-77,0)">
        <rect id="Artboard2" x="77" y="0" width="66" height="74" style="fill:none;"/>
        <clipPath id="_clip1">
            <rect id="Artboard21" x="77" y="0" width="66" height="74"/>
        </clipPath>
        <g clip-path="url(#_clip1)">
            <g>
                <g transform="matrix(1,0,0,1,1,11)">
                    <path d="M96.5,26C100.558,26 109,26 109,26C109,26 109,35.659 109,38.5C109,45.399 103.399,51 96.5,51C89.601,51 84,45.399 84,38.5C84,31.601 89.601,26 96.5,26Z" style="fill:rgb(115,65,223);"/>
                </g>
                <g transform="matrix(-1,-1.22465e-16,1.22465e-16,-1,218.993,63)">
                    <path d="M96.5,26C100.558,26 109,26 109,26C109,26 109,35.659 109,38.5C109,45.399 103.399,51 96.5,51C89.601,51 84,45.399 84,38.5C84,34.619 83.993,26 83.993,26C83.993,26 93.482,26 96.5,26Z" style="fill:rgb(115,65,223);"/>
                </g>
            </g>
        </g>
    </g>
</svg>
